<svg width="137" height="29" viewBox="0 0 137 29" fill="none" xmlns="http://www.w3.org/2000/svg">
<path d="M118.7 8.97742L116.708 10.9284C117.715 11.9146 118.27 13.2265 118.27 14.6183C118.27 16.0101 117.715 17.3219 116.708 18.3113L118.7 20.2622C120.237 18.7537 121.087 16.7505 121.087 14.6213C121.087 12.4922 120.24 10.489 118.7 8.98049" fill="currentColor"/>
<path d="M126.438 1.39174L124.964 2.90027C127.254 5.04478 134.368 12.993 134.443 14.6183C134.368 16.2435 127.26 24.1917 124.974 26.3393L126.448 27.8448C126.551 27.7495 136.573 17.7029 136.573 14.6213C136.573 11.5398 126.539 1.48392 126.438 1.38867" fill="currentColor"/>
<path d="M122.621 5.11853L120.676 7.10942C122.116 8.46126 124.534 11.2325 124.534 14.6306C124.534 18.0286 122.125 20.7876 120.689 22.1394L122.637 24.1272C124.396 22.4743 127.348 19.0425 127.348 14.6306C127.348 10.2186 124.387 6.77146 122.621 5.11853Z" fill="currentColor"/>
<path d="M30.6199 5.93274H27.6087C23.6848 5.93274 20.4885 9.0604 20.4885 12.907V15.8565C20.4885 19.7 23.6816 22.8277 27.6087 22.8277H30.6199C34.5439 22.8277 37.737 19.7 37.737 15.8565V12.907C37.737 9.06348 34.5439 5.93274 30.6199 5.93274ZM34.9077 15.3342C34.9077 17.9365 32.7465 20.0564 30.0867 20.0564H28.1388C25.4821 20.0564 23.3178 17.9395 23.3178 15.3342V13.4262C23.3178 10.8239 25.4789 8.70401 28.1388 8.70401H30.0867C32.7434 8.70401 34.9077 10.8209 34.9077 13.4262V15.3342Z" fill="currentColor"/>
<path d="M71.6285 5.93274H68.6173C64.6934 5.93274 61.4971 9.0604 61.4971 12.907V15.8565C61.4971 19.7 64.6902 22.8277 68.6173 22.8277H71.6285C75.5525 22.8277 78.7456 19.7 78.7456 15.8565V12.907C78.7456 9.06348 75.5525 5.93274 71.6285 5.93274ZM75.9163 15.3342C75.9163 17.9365 73.7552 20.0564 71.0953 20.0564H69.1474C66.4907 20.0564 64.3264 17.9395 64.3264 15.3342V13.4262C64.3264 10.8239 66.4875 8.70401 69.1474 8.70401H71.0953C73.752 8.70401 75.9163 10.8209 75.9163 13.4262V15.3342Z" fill="currentColor"/>
<path d="M51.1085 5.93274H48.0974C44.1734 5.93274 40.9772 9.0604 40.9772 12.907V15.8565C40.9772 19.7 44.1703 22.8277 48.0974 22.8277H51.1085C52.5702 22.8277 53.9817 22.3852 55.1893 21.5526L55.3963 21.4113V29H58.2256V12.907C58.2256 9.06348 55.0325 5.93274 51.1085 5.93274ZM55.3963 15.3342C55.3963 17.9365 53.2352 20.0564 50.5753 20.0564H48.6275C45.9707 20.0564 43.8064 17.9395 43.8064 15.3342V13.4262C43.8064 10.8239 45.9676 8.70401 48.6275 8.70401H50.5753C53.2321 8.70401 55.3963 10.8209 55.3963 13.4262V15.3342Z" fill="currentColor"/>
<path d="M81.9888 13.1436V16.093C81.9888 19.9366 85.1819 23.0642 89.1058 23.0642H92.117C96.0409 23.0642 99.2341 19.9366 99.2341 16.093V0H96.4048V7.58873L96.1978 7.4474C94.9902 6.61479 93.5787 6.17237 92.117 6.17237H89.1058C85.1819 6.17237 81.9888 9.30004 81.9888 13.1436ZM91.5869 8.94364C94.2436 8.94364 96.4079 11.0605 96.4079 13.6659V15.5738C96.4079 18.1761 94.2468 20.2929 91.5869 20.2929H89.6391C86.9823 20.2929 84.818 18.1761 84.818 15.5738V13.6659C84.818 11.0636 86.9792 8.94364 89.6391 8.94364H91.5869Z" fill="currentColor"/>
<path d="M105.388 6.10779H102.559V22.8276H105.388V6.10779Z" fill="currentColor"/>
<path d="M10.1282 5.93274H7.11706C3.19311 5.93274 0 9.0604 0 12.9039V22.8184H2.82926V13.4262C2.82926 10.8239 4.99041 8.70401 7.65029 8.70401H9.59815C12.2549 8.70401 14.4192 10.8209 14.4192 13.4262V22.8184H17.2484V12.9039C17.2484 9.0604 14.0553 5.93274 10.1314 5.93274" fill="currentColor"/>
<path d="M105.388 0H102.559V2.77127H105.388V0Z" fill="currentColor"/>
</svg>
